<?xml version="1.0" encoding="utf-8"?>
<!-- Generator: Adobe Illustrator 16.0.4, SVG Export Plug-In . SVG Version: 6.00 Build 0)  -->
<!DOCTYPE svg PUBLIC "-//W3C//DTD SVG 1.1//EN" "http://www.w3.org/Graphics/SVG/1.1/DTD/svg11.dtd">
<svg version="1.1" id="Layer_1" xmlns="http://www.w3.org/2000/svg" xmlns:xlink="http://www.w3.org/1999/xlink" x="0px" y="0px"
	 width="50px" height="50px" viewBox="0 0 50 50" enable-background="new 0 0 50 50" xml:space="preserve">
<path d="M40.947,22.156L40.947,22.156c-1.33,0.021-2.401,1.045-2.533,2.337h-1.682l0.813-1.412c0.138-0.239,0.056-0.545-0.185-0.685
	c-0.24-0.137-0.545-0.056-0.684,0.185l-1.104,1.912h-2.047l2.209-3.826c0.14-0.239,0.058-0.545-0.183-0.683
	c-0.237-0.139-0.545-0.058-0.683,0.183l-2.498,4.326h-2.669l2.809-3.839l-4.727,0.515l1.333-2.31l4.996-0.002
	c0.277,0,0.5-0.224,0.5-0.5c0-0.275-0.223-0.5-0.5-0.5l-4.418,0.002l1.022-1.772h2.208c0.276,0,0.5-0.224,0.5-0.5
	s-0.224-0.5-0.5-0.5h-1.631l0.846-1.465c0.334,0.149,0.688,0.249,1.055,0.249c0.91,0,1.767-0.485,2.233-1.268
	c0.732-1.229,0.329-2.828-0.899-3.563c-1.189-0.709-2.856-0.284-3.563,0.897c-0.608,1.021-0.426,2.289,0.353,3.112l-0.888,1.536
	l-0.815-1.412c-0.141-0.238-0.443-0.322-0.684-0.184c-0.238,0.139-0.32,0.443-0.183,0.684l1.104,1.912l-1.023,1.771l-2.209-3.826
	c-0.139-0.239-0.444-0.322-0.684-0.184c-0.238,0.139-0.32,0.443-0.183,0.684l2.497,4.326l-1.335,2.312L25,16.318l-1.919,4.349
	l-1.333-2.308l2.498-4.328c0.139-0.239,0.057-0.545-0.184-0.684c-0.238-0.138-0.545-0.057-0.683,0.184l-2.21,3.826l-1.021-1.771
	l1.104-1.914c0.138-0.239,0.056-0.545-0.184-0.685c-0.242-0.137-0.547-0.055-0.685,0.185l-0.813,1.413l-0.854-1.479
	c0.388-0.336,0.666-0.779,0.802-1.285c0.182-0.672,0.088-1.373-0.259-1.975c-0.688-1.191-2.345-1.646-3.551-0.949
	c-1.24,0.717-1.666,2.31-0.95,3.549c0.463,0.803,1.326,1.301,2.252,1.301c0.285,0,0.562-0.062,0.832-0.155l0.861,1.492l-1.631-0.002
	c-0.275,0-0.5,0.224-0.5,0.5c0,0.274,0.225,0.5,0.5,0.5l2.209,0.002l1.021,1.771h-4.416c-0.275,0-0.5,0.225-0.5,0.5
	c0,0.276,0.225,0.5,0.5,0.5h4.993l1.335,2.312l-4.729-0.514l2.808,3.836h-2.667l-2.499-4.326c-0.14-0.239-0.444-0.322-0.683-0.184
	c-0.239,0.139-0.321,0.443-0.184,0.684l2.21,3.826h-2.048l-1.104-1.912c-0.141-0.239-0.443-0.322-0.684-0.184
	c-0.238,0.139-0.32,0.443-0.183,0.684l0.815,1.412h-1.775c-0.323-1.069-1.317-1.859-2.518-1.859H8.974
	c-0.693,0.012-1.342,0.291-1.824,0.789c-0.484,0.499-0.744,1.154-0.733,1.848c0.021,1.412,1.187,2.561,2.598,2.561h0.04
	c0.694-0.011,1.344-0.291,1.826-0.79c0.412-0.426,0.65-0.969,0.709-1.548h1.682l-0.815,1.412c-0.138,0.24-0.056,0.545,0.184,0.685
	c0.079,0.045,0.165,0.065,0.25,0.065c0.173,0,0.341-0.09,0.435-0.25l1.103-1.912h2.047l-2.209,3.826
	c-0.139,0.239-0.057,0.545,0.183,0.684c0.08,0.046,0.166,0.066,0.25,0.066c0.172,0,0.342-0.09,0.434-0.25l2.498-4.326h2.669
	l-2.81,3.838l4.728-0.515l-1.334,2.312l-4.994-0.002c-0.276,0-0.5,0.224-0.5,0.5s0.224,0.5,0.5,0.5l4.417,0.002l-1.023,1.771h-2.207
	c-0.276,0-0.5,0.225-0.5,0.5c0,0.276,0.224,0.5,0.5,0.5h1.631l-0.842,1.459c-1.162-0.504-2.64-0.068-3.291,1.024
	c-0.355,0.595-0.459,1.293-0.289,1.966c0.17,0.674,0.592,1.24,1.188,1.598c0.402,0.24,0.862,0.367,1.33,0.367
	c0.91,0,1.766-0.484,2.232-1.265c0.356-0.597,0.459-1.296,0.289-1.97c-0.109-0.438-0.336-0.824-0.64-1.145l0.888-1.537l0.816,1.413
	c0.094,0.16,0.262,0.25,0.434,0.25c0.084,0,0.17-0.021,0.25-0.067c0.238-0.137,0.32-0.442,0.183-0.683l-1.104-1.913l1.022-1.771
	l2.21,3.827c0.092,0.16,0.26,0.25,0.434,0.25c0.084,0,0.17-0.021,0.25-0.067c0.238-0.138,0.32-0.442,0.183-0.683l-2.497-4.328
	l1.334-2.311l1.918,4.353l1.92-4.353l1.334,2.312l-2.496,4.325c-0.139,0.238-0.057,0.545,0.184,0.683
	c0.078,0.046,0.164,0.067,0.25,0.067c0.172,0,0.34-0.09,0.433-0.25l2.209-3.824l1.022,1.771l-1.104,1.911
	c-0.138,0.239-0.056,0.546,0.185,0.685c0.078,0.045,0.164,0.065,0.25,0.065c0.172,0,0.34-0.09,0.434-0.25l0.812-1.411l0.854,1.479
	c-0.919,0.8-1.177,2.164-0.546,3.257c0.464,0.802,1.326,1.3,2.252,1.3c0.453,0,0.902-0.121,1.298-0.349
	c0.601-0.347,1.03-0.907,1.211-1.578c0.18-0.671,0.088-1.372-0.259-1.974c-0.605-1.045-1.955-1.521-3.09-1.153l-0.856-1.483
	l1.633,0.002c0.276,0,0.5-0.225,0.5-0.5s-0.224-0.5-0.5-0.5l-2.21-0.002l-1.021-1.771h4.418c0.277,0,0.5-0.225,0.5-0.5
	c0-0.276-0.223-0.5-0.5-0.5h-4.996l-1.333-2.311l4.727,0.514l-2.81-3.835h2.67l2.498,4.326c0.092,0.16,0.261,0.25,0.433,0.25
	c0.085,0,0.171-0.021,0.25-0.067c0.239-0.138,0.321-0.443,0.183-0.683l-2.209-3.826h2.049l1.104,1.912
	c0.094,0.16,0.262,0.25,0.434,0.25c0.084,0,0.17-0.021,0.25-0.067c0.238-0.138,0.32-0.442,0.183-0.683l-0.815-1.412h1.775
	c0.322,1.07,1.312,1.861,2.48,1.861h0.037c1.433-0.025,2.58-1.209,2.559-2.638C43.564,23.305,42.4,22.156,40.947,22.156z
	 M31.829,10.451c0.292-0.487,0.807-0.778,1.376-0.778c0.021,0,0.042,0.008,0.062,0.009c0.264,0.012,0.524,0.08,0.754,0.217
	c0.061,0.037,0.111,0.082,0.166,0.125c0.619,0.489,0.803,1.373,0.389,2.068c-0.391,0.648-1.231,0.926-1.934,0.672
	c-0.091-0.031-0.179-0.07-0.262-0.119c-0.223-0.134-0.395-0.314-0.523-0.521C31.547,11.63,31.511,10.986,31.829,10.451z
	 M15.628,11.949c-0.355-0.617-0.246-1.373,0.211-1.873c0.107-0.118,0.229-0.227,0.373-0.311c0.143-0.082,0.297-0.135,0.456-0.17
	c0.112-0.023,0.228-0.045,0.342-0.045c0.571,0,1.103,0.307,1.388,0.799c0.213,0.37,0.271,0.801,0.158,1.215
	c-0.064,0.244-0.191,0.461-0.354,0.646c-0.111,0.125-0.239,0.237-0.39,0.325c-0.149,0.087-0.312,0.138-0.479,0.168
	C16.68,12.824,15.965,12.535,15.628,11.949z M7.447,25.46c-0.01-0.068-0.022-0.137-0.023-0.206
	c-0.004-0.271,0.064-0.528,0.188-0.762c0.07-0.134,0.154-0.263,0.264-0.374c0.297-0.307,0.695-0.479,1.146-0.485
	c0.61,0,1.141,0.353,1.408,0.859c0.114,0.216,0.188,0.456,0.19,0.715c0.002,0.097-0.009,0.19-0.023,0.285
	c-0.052,0.319-0.196,0.614-0.428,0.852c-0.298,0.307-0.697,0.479-1.124,0.485l-0.023,0.497V26.83
	C8.224,26.83,7.56,26.231,7.447,25.46z M18.357,38.323c0.104,0.414,0.041,0.845-0.179,1.211c-0.286,0.48-0.813,0.777-1.375,0.777
	c-0.021,0-0.042-0.008-0.062-0.009c-0.266-0.011-0.525-0.079-0.754-0.217c-0.061-0.036-0.112-0.08-0.166-0.123
	c-0.277-0.218-0.479-0.515-0.565-0.86c-0.104-0.414-0.041-0.843,0.179-1.209c0.291-0.488,0.805-0.779,1.375-0.779
	c0.19,0,0.375,0.048,0.553,0.113c0.091,0.034,0.182,0.063,0.265,0.113c0.219,0.131,0.394,0.311,0.524,0.52
	C18.24,38.003,18.314,38.155,18.357,38.323z M32.992,37.235c0.572,0,1.104,0.307,1.388,0.8c0.213,0.37,0.271,0.801,0.159,1.213
	c-0.067,0.252-0.198,0.474-0.369,0.661c-0.109,0.119-0.23,0.228-0.376,0.311c-0.142,0.082-0.294,0.131-0.45,0.162
	c-0.658,0.137-1.391-0.152-1.732-0.747c-0.354-0.612-0.248-1.358,0.197-1.858c0.11-0.125,0.235-0.236,0.387-0.324
	c0.149-0.086,0.312-0.139,0.479-0.174C32.779,37.257,32.886,37.235,32.992,37.235z M26.555,27.676l-0.25,0.566l-1.301,2.946
	l-1.299-2.946l-0.25-0.567l-0.615,0.067l-3.201,0.348l1.901-2.597l0.364-0.499l-0.365-0.501l-1.9-2.599l3.201,0.349l0.613,0.065
	l0.251-0.568l1.3-2.944l1.3,2.947l0.25,0.567l0.615-0.067l3.2-0.349l-1.9,2.599l-0.365,0.501l0.364,0.499l1.901,2.597l-3.199-0.348
	L26.555,27.676z M39.577,25.493c-0.113-0.216-0.187-0.456-0.189-0.714c-0.001-0.098,0.009-0.192,0.024-0.286
	c0.126-0.747,0.771-1.324,1.578-1.337c0.797,0,1.457,0.6,1.57,1.369c0.01,0.067,0.021,0.136,0.022,0.205
	c0.004,0.275-0.067,0.533-0.188,0.763c-0.265,0.5-0.779,0.851-1.385,0.86l-0.021,0.498v-0.498
	C40.377,26.354,39.847,26.001,39.577,25.493z"/>
</svg>
